<svg width="114" height="41" viewBox="0 0 114 41" fill="none" xmlns="http://www.w3.org/2000/svg">
<path d="M59.9336 30.2784L45.6191 39.0067V26.0888L50.8561 14.9165L53.3001 14.2183L59.9336 18.0587V30.2784Z" fill="url(#paint0_linear_4204_247)"/>
<path d="M51.2225 27.1724C51.0096 27.2979 50.8789 27.5267 50.8789 27.7738V34.9503C50.8789 35.4907 51.4664 35.8263 51.9319 35.5518L54.2647 34.1759C54.4776 34.0504 54.6083 33.8216 54.6083 33.5745V26.398C54.6083 25.8576 54.0208 25.522 53.5553 25.7965L51.2225 27.1724Z" fill="#E64631"/>
<path d="M61.1665 18.2408C61.1665 17.2474 60.6388 16.3287 59.7808 15.8282L45.8631 7.70938L39.8061 4.20085C38.466 3.42458 36.7501 3.88691 35.9814 5.23138L29.3919 16.7564C29.1461 17.1863 29.019 17.6738 29.0237 18.1689L29.1415 30.732C29.1438 30.9771 29.2744 31.203 29.4857 31.3273L43.9663 39.8461C44.1846 39.9746 44.4553 39.9747 44.6738 39.8465L45.8631 39.1485V26.2106L51.2907 16.629C52.0555 15.2789 53.7742 14.8109 55.1179 15.587L59.2742 17.9875C59.4902 18.1122 59.6233 18.3427 59.6233 18.5922V29.9076C59.6233 30.4473 60.2095 30.783 60.675 30.5098L60.8216 30.4237C61.0353 30.2984 61.1665 30.0692 61.1665 29.8215V18.2408Z" fill="url(#paint1_linear_4204_247)"/>
<path d="M61.1665 18.2408C61.1665 17.2474 60.6388 16.3287 59.7808 15.8282L45.8631 7.70938L39.8061 4.20085C38.466 3.42458 36.7501 3.88691 35.9814 5.23138L29.3919 16.7564C29.1461 17.1863 29.019 17.6738 29.0237 18.1689L29.1415 30.732C29.1438 30.9771 29.2744 31.203 29.4857 31.3273L43.9663 39.8461C44.1846 39.9746 44.4553 39.9747 44.6738 39.8465L45.8631 39.1485V26.2106L51.2907 16.629C52.0555 15.2789 53.7742 14.8109 55.1179 15.587L59.2742 17.9875C59.4902 18.1122 59.6233 18.3427 59.6233 18.5922V29.9076C59.6233 30.4473 60.2095 30.783 60.675 30.5098L60.8216 30.4237C61.0353 30.2984 61.1665 30.0692 61.1665 29.8215V18.2408Z" fill="url(#paint2_linear_4204_247)" fill-opacity="0.7"/>
<path d="M106.467 33.9322L105.465 27.5047V18.4865C105.465 17.2809 105.245 16.344 104.805 15.676C104.366 15.008 103.429 14.674 101.995 14.674C101.148 14.674 100.455 14.8043 99.9176 15.065C99.3962 15.3094 99.0051 15.6434 98.7445 16.067C98.5001 16.4744 98.3779 16.9224 98.3779 17.4112H89.9219C89.9219 15.5212 90.3699 13.9653 91.266 12.7433C92.1621 11.505 93.5063 10.5845 95.2985 9.98165C97.0907 9.37881 99.3229 9.07739 101.995 9.07739C104.325 9.07739 106.329 9.43584 108.007 10.1527C109.701 10.8696 111.005 11.9449 111.917 13.3787C112.83 14.8125 113.286 16.6129 113.286 18.7798V33.9322H106.467ZM98.8911 34.7143C96.7404 34.7143 94.9238 34.3558 93.4411 33.6389C91.9748 32.9058 90.8668 31.92 90.1174 30.6818C89.3679 29.4435 88.9932 28.0749 88.9932 26.576C88.9932 25.1585 89.3842 23.9365 90.1663 22.9101C90.9483 21.8673 92.1051 21.0608 93.6366 20.4906C95.1845 19.9203 97.0826 19.6352 99.331 19.6352C100.7 19.6352 101.905 19.7085 102.948 19.8551C104.007 20.0018 105.091 20.181 106.198 20.3928V24.7919C105.384 24.6127 104.537 24.4742 103.657 24.3764C102.793 24.2787 101.946 24.2298 101.115 24.2298C99.9583 24.2298 99.0377 24.4172 98.3534 24.7919C97.6854 25.1503 97.3514 25.745 97.3514 26.576C97.3514 27.1788 97.6528 27.7083 98.2557 28.1645C98.8585 28.6044 99.8116 28.8244 101.115 28.8244C102.223 28.8244 103.095 28.6044 103.73 28.1645C104.366 27.7246 104.814 27.1707 105.074 26.5026C105.335 25.8346 105.465 25.1748 105.465 24.5231H107.298C107.298 26.3804 107.005 28.0831 106.418 29.6309C105.832 31.1787 104.919 32.417 103.681 33.3457C102.443 34.2581 100.846 34.7143 98.8911 34.7143Z" fill="url(#paint3_linear_4204_247)"/>
<path d="M1.39653 33.7263C0.62525 33.7263 0 33.101 0 32.3298V1.39653C0 0.62525 0.625249 0 1.39653 0H6.42406C7.19534 0 7.82059 0.62525 7.82059 1.39653V32.3298C7.82059 33.101 7.19534 33.7263 6.42406 33.7263H1.39653ZM6.84302 17.6208L14.7472 10.042C15.0072 9.79273 15.3535 9.65354 15.7137 9.65354H21.7889C23.0883 9.65354 23.6834 11.2725 22.6934 12.1141L6.84302 25.588V17.6208ZM17.4973 33.7263C17.0254 33.7263 16.5855 33.488 16.3277 33.0929L6.6475 18.2562L13.8082 16.2766L24.6538 31.5202C25.3116 32.4447 24.6506 33.7263 23.5159 33.7263H17.4973Z" fill="url(#paint4_linear_4204_247)"/>
<path d="M75.617 34.7143C73.3197 34.7143 71.2912 34.4128 69.5316 33.81C67.7719 33.1909 66.3952 32.2703 65.4013 31.0484C64.5467 29.9658 64.0719 28.6405 63.9768 27.0723C63.9536 26.6898 64.2683 26.3804 64.6516 26.3804H70.3504C70.7256 26.3804 71.0188 26.6827 71.1223 27.0433C71.2653 27.5418 71.5579 27.9074 71.9999 28.1401C72.6354 28.4659 73.4907 28.6289 74.5661 28.6289C75.2178 28.6289 75.7554 28.5474 76.1791 28.3845C76.6027 28.2215 76.9204 28.0097 77.1322 27.7491C77.344 27.4721 77.4499 27.1788 77.4499 26.8692C77.4499 26.4619 77.3033 26.1361 77.01 25.8917C76.7167 25.6473 76.2605 25.4029 75.6414 25.1585L69.8004 22.8856C68.0733 22.1687 66.7373 21.2645 65.7923 20.1729C64.8636 19.0649 64.3993 17.7534 64.3993 16.2381C64.3993 14.1038 65.385 12.3767 67.3565 11.057C69.3279 9.73726 72.0244 9.07739 75.4459 9.07739C78.6556 9.07739 81.124 9.82687 82.851 11.3258C84.4 12.6702 85.2609 14.3423 85.4337 16.3421C85.4671 16.7283 85.1504 17.0446 84.7628 17.0446H79.0035C78.6179 17.0446 78.3216 16.718 78.1633 16.3663C78.0539 16.1233 77.8812 15.9013 77.6454 15.7005C77.2055 15.3094 76.4723 15.1139 75.4459 15.1139C74.5986 15.1139 73.9306 15.2524 73.4418 15.5294C72.9531 15.8064 72.7087 16.173 72.7087 16.6292C72.7087 17.2483 73.2219 17.7371 74.2483 18.0955L80.8959 20.7594C82.5414 21.4111 83.8367 22.2258 84.7817 23.2033C85.7267 24.1809 86.1992 25.4029 86.1992 26.8692C86.1992 28.2053 85.7348 29.4761 84.8061 30.6818C83.8937 31.8712 82.6392 32.8406 81.0425 33.5901C79.4458 34.3395 77.6373 34.7143 75.617 34.7143Z" fill="url(#paint5_linear_4204_247)"/>
<defs>
<linearGradient id="paint0_linear_4204_247" x1="42.8261" y1="-32.9148" x2="50.507" y2="25.3905" gradientUnits="userSpaceOnUse">
<stop stop-color="#995236"/>
<stop offset="1" stop-color="#FFE7E4"/>
</linearGradient>
<linearGradient id="paint1_linear_4204_247" x1="46.6664" y1="8.28304" x2="35.4942" y2="34.8172" gradientUnits="userSpaceOnUse">
<stop stop-color="#FF6060"/>
<stop offset="0.112606" stop-color="#F45C5C"/>
<stop offset="0.519027" stop-color="#E65757"/>
<stop offset="0.581214" stop-color="#E96262"/>
<stop offset="0.641094" stop-color="#EE6C6C"/>
<stop offset="1" stop-color="#ED5959"/>
</linearGradient>
<linearGradient id="paint2_linear_4204_247" x1="45.2699" y1="7.23564" x2="37.9381" y2="18.0588" gradientUnits="userSpaceOnUse">
<stop stop-color="#FF7F50"/>
<stop offset="1" stop-color="#E53A1C"/>
</linearGradient>
<linearGradient id="paint3_linear_4204_247" x1="108.894" y1="10.5403" x2="91.7862" y2="32.5357" gradientUnits="userSpaceOnUse">
<stop stop-color="#FC7152"/>
<stop offset="1" stop-color="#E74530"/>
</linearGradient>
<linearGradient id="paint4_linear_4204_247" x1="18.2143" y1="10.3344" x2="1.10672" y2="32.3298" gradientUnits="userSpaceOnUse">
<stop stop-color="#FC7152"/>
<stop offset="1" stop-color="#E74530"/>
</linearGradient>
<linearGradient id="paint5_linear_4204_247" x1="81.4729" y1="10.5403" x2="63.9185" y2="30.0324" gradientUnits="userSpaceOnUse">
<stop stop-color="#FC7152"/>
<stop offset="1" stop-color="#E74530"/>
</linearGradient>
</defs>
</svg>
